# xmcd CD database file
#
# Track frame offsets:
#	150
#	17179
#	34693
#	53320
#	63322
#	76134
#	86053
#	107205
#	125479
#	149195
#	161611
#	178894
#	200421
#	214147
#	227447
#
# Disc length: 3193 seconds
#
# Revision: 0
# Processed by: cddbd v1.5.2PL0 Copyright (c) Steve Scherf et al.
# Submitted via: CDex 1.51
#
DISCID=ce0c770f
DTITLE=Wilson Diesel - Short Cool Ones
DYEAR=1996
DGENRE=Blues
TTITLE0=I Can't Stand the Rain
TTITLE1=Other Man
TTITLE2=Spoonful
TTITLE3=Strange Love
TTITLE4=Evil
TTITLE5=Tee Ni Nee Ni  Nu
TTITLE6=Little Red Rooster
TTITLE7=Running Shoes
TTITLE8=Too wet to plough
TTITLE9=My Babe
TTITLE10=Somebody Loan Me a Dime
TTITLE11=Sun is Shining
TTITLE12=Sugar Babe
TTITLE13=Cherokee Dance
TTITLE14=Don't start me talkin'
EXTD=YEAR: 1996
EXTT0=
EXTT1=
EXTT2=
EXTT3=
EXTT4=
EXTT5=
EXTT6=
EXTT7=
EXTT8=
EXTT9=
EXTT10=
EXTT11=
EXTT12=
EXTT13=
EXTT14=
PLAYORDER=
